<?xml version="1.0" standalone="no"?>
<!DOCTYPE svg PUBLIC "-//W3C//DTD SVG 20010904//EN"
 "http://www.w3.org/TR/2001/REC-SVG-20010904/DTD/svg10.dtd">
<svg version="1.0" xmlns="http://www.w3.org/2000/svg"
 width="1000.000000pt" height="1000.000000pt" viewBox="0 0 1000.000000 1000.000000"
 preserveAspectRatio="xMidYMid meet">
<metadata>
Created by potrace 1.11, written by Peter Selinger 2001-2013
</metadata>
<g transform="translate(0.000000,1000.000000) scale(0.100000,-0.100000)"
fill="#000000" stroke="none">
<path d="M600 8866 l0 -1134 163 -95 c89 -51 182 -105 207 -119 25 -14 70 -40
100 -58 55 -33 90 -53 165 -95 22 -13 134 -77 249 -144 115 -67 211 -121 214
-121 3 0 13 -6 21 -14 9 -7 43 -28 76 -46 33 -17 97 -54 141 -81 45 -27 84
-49 87 -49 2 0 57 -31 121 -70 65 -38 119 -70 121 -70 2 0 36 -19 77 -43 40
-24 93 -55 118 -69 44 -25 199 -114 520 -301 85 -50 164 -95 175 -101 55 -31
242 -138 255 -147 53 -32 223 -129 228 -129 3 0 13 -6 21 -14 9 -7 47 -30 85
-50 38 -21 92 -51 120 -68 28 -16 58 -33 66 -38 8 -5 51 -30 95 -56 44 -26
100 -58 125 -72 25 -14 140 -81 257 -148 117 -68 222 -129 235 -136 13 -7 44
-25 70 -41 44 -27 49 -28 75 -14 16 7 201 114 413 237 212 122 401 231 420
242 62 36 434 250 480 278 25 14 52 29 60 33 8 4 76 43 150 87 74 43 197 114
272 157 76 43 138 81 138 84 0 3 -57 38 -127 79 -71 41 -252 146 -403 233
-151 88 -300 173 -330 190 -30 17 -79 45 -108 64 -29 18 -56 33 -60 33 -4 0
-23 11 -42 23 -19 13 -57 36 -85 52 -27 15 -153 87 -280 160 -126 73 -246 142
-265 153 -19 10 -75 43 -125 72 -49 29 -103 60 -120 70 -16 9 -235 135 -485
280 -487 281 -503 290 -553 319 -167 94 -207 117 -237 136 -32 21 -264 154
-370 213 -24 14 -84 49 -133 78 -49 30 -91 54 -93 54 -2 0 -41 22 -86 49 -46
27 -99 58 -118 68 -37 21 -790 456 -850 491 -19 12 -51 29 -70 40 -19 11 -134
77 -255 147 -258 149 -721 416 -784 453 -25 14 -67 38 -93 53 l-48 28 0 -1133z"/>
<path d="M600 3536 l0 -3535 58 33 c80 45 332 191 369 213 17 10 62 36 100 57
37 22 239 138 448 259 209 121 396 229 415 240 32 18 220 126 470 271 l105 61
0 2398 0 2399 -25 18 c-14 10 -41 27 -60 38 -19 11 -80 45 -135 77 -55 31
-116 66 -135 77 -19 11 -64 37 -100 58 -36 21 -81 47 -100 58 -19 11 -150 86
-290 167 -140 81 -271 157 -290 167 -19 11 -134 78 -255 148 -121 70 -238 138
-260 150 -22 12 -98 56 -170 97 -71 42 -133 77 -137 80 -5 2 -8 -1587 -8
-3531z"/>
<path d="M7195 6072 c-55 -32 -174 -101 -265 -154 -91 -53 -181 -105 -200
-117 -19 -11 -42 -24 -50 -28 -8 -4 -46 -26 -85 -48 -38 -23 -90 -53 -115 -67
-25 -14 -117 -67 -205 -118 -301 -174 -620 -358 -655 -377 -19 -11 -116 -67
-215 -125 -99 -58 -304 -176 -455 -263 -151 -87 -297 -171 -325 -188 -27 -16
-70 -41 -95 -55 -25 -14 -155 -89 -290 -167 -135 -78 -276 -159 -313 -181 -38
-21 -83 -47 -100 -58 -18 -10 -169 -97 -337 -194 -168 -96 -316 -183 -330
-193 l-25 -17 0 -1120 c0 -616 3 -1124 7 -1127 4 -4 20 2 36 14 17 12 33 21
36 21 3 0 51 27 106 60 55 33 103 60 107 60 4 0 14 6 22 14 9 7 41 27 71 43
30 17 199 113 375 215 176 102 426 246 555 320 129 75 291 169 360 208 153 89
394 228 640 370 102 58 347 200 545 315 198 114 379 218 402 231 23 13 92 53
153 89 61 36 113 65 116 65 2 0 33 17 67 39 34 21 143 85 242 141 99 57 243
140 320 185 77 45 160 93 185 107 63 36 211 121 370 213 74 43 250 144 390
225 140 81 300 173 355 205 120 70 219 127 468 269 103 60 187 111 187 115 0
4 -123 78 -272 165 -150 87 -280 162 -288 167 -58 34 -294 169 -296 169 -2 0
-52 29 -111 63 -118 70 -341 199 -413 239 -25 14 -96 55 -158 92 -62 36 -133
77 -158 91 -24 14 -64 37 -89 51 -25 14 -72 41 -103 60 -31 18 -59 34 -62 34
-3 0 -50 -26 -105 -58z"/>
</g>
</svg>
