<svg xmlns="http://www.w3.org/2000/svg" width="28" height="28" viewBox="0 0 28 28">
  <path d="M112,28 C104.268014,28 98,21.7319865 98,14 C98,6.2680135 104.268014,0 112,0 C119.731986,0 126,6.2680135 126,14 C126,21.7319865 119.731986,28 112,28 Z M112,26.5762712 C118.945683,26.5762712 124.576271,20.9456828 124.576271,14 C124.576271,7.05431721 118.945683,1.42372881 112,1.42372881 C105.054317,1.42372881 99.4237288,7.05431721 99.4237288,14 C99.4237288,20.9456828 105.054317,26.5762712 112,26.5762712 Z M117.18934,13.25 L114.46967,10.5303301 C114.176777,10.2374369 114.176777,9.76256313 114.46967,9.46966991 C114.762563,9.1767767 115.237437,9.1767767 115.53033,9.46966991 L120.06066,14 L115.53033,18.5303301 C115.237437,18.8232233 114.762563,18.8232233 114.46967,18.5303301 C114.176777,18.2374369 114.176777,17.7625631 114.46967,17.4696699 L117.18934,14.75 L105,14.75 C104.585786,14.75 104.25,14.4142136 104.25,14 C104.25,13.5857864 104.585786,13.25 105,13.25 L117.18934,13.25 Z" transform="translate(-98)"/>
</svg>
