<svg version="1.1" id="Layer_1" xmlns="http://www.w3.org/2000/svg" xmlns:xlink="http://www.w3.org/1999/xlink" x="0px" y="0px"
  viewBox="0 0 60 60" style="enable-background:new 0 0 60 60;" xml:space="preserve">
<path d="M30,1.5c15.7,0,28.5,12.8,28.5,28.5S45.7,58.5,30,58.5S1.5,45.7,1.5,30S14.3,1.5,30,1.5 M30,0
  C13.4,0,0,13.4,0,30s13.4,30,30,30s30-13.4,30-30S46.6,0,30,0L30,0z"/>
<path class="st0" d="M30.9,39.2V18.5c0-0.6-0.4-1-1-1c-0.6,0-1,0.4-1,1v20.8l-6.1-6.1c-0.4-0.4-1-0.4-1.3,0
  s-0.4,1,0,1.3l7.7,7.7h0.1c0.1,0.1,0.2,0.1,0.3,0.2c0.2,0.1,0.5,0.1,0.8,0c0.1,0,0.2-0.1,0.3-0.2h0.1l7.7-7.7
  c0.2-0.2,0.3-0.5,0.3-0.7c0-0.3-0.1-0.5-0.3-0.7c-0.6-0.4-1.2-0.4-1.5,0L30.9,39.2z"/>
</svg>
