<svg xmlns="http://www.w3.org/2000/svg" width="28" height="29" viewBox="0 0 28 29">
  <path d="M165,28 C157.268014,28 151,21.7319865 151,14 C151,6.2680135 157.268014,0 165,0 C172.731986,0 179,6.2680135 179,14 C179,21.7319865 172.731986,28 165,28 Z M170.18934,13.25 L158,13.25 C157.585786,13.25 157.25,13.5857864 157.25,14 C157.25,14.4142136 157.585786,14.75 158,14.75 L170.18934,14.75 L167.46967,17.4696699 C167.176777,17.7625631 167.176777,18.2374369 167.46967,18.5303301 C167.762563,18.8232233 168.237437,18.8232233 168.53033,18.5303301 L173.06066,14 L168.53033,9.46966991 C168.237437,9.1767767 167.762563,9.1767767 167.46967,9.46966991 C167.176777,9.76256313 167.176777,10.2374369 167.46967,10.5303301 L170.18934,13.25 Z" transform="translate(-151 .803)"/>
</svg>
