<?xml version="1.0" encoding="utf-8"?>
<!-- Generator: Adobe Illustrator 19.0.0, SVG Export Plug-In . SVG Version: 6.00 Build 0)  -->
<svg version="1.1" id="DEFINERY_1_" xmlns="http://www.w3.org/2000/svg" xmlns:xlink="http://www.w3.org/1999/xlink" x="0px"
	 y="0px" viewBox="0 0 214 42" style="enable-background:new 0 0 214 42;" xml:space="preserve">
<style type="text/css">
	.st0{fill-rule:evenodd;clip-rule:evenodd;fill:#55C7C0;}
	.st1{fill-rule:evenodd;clip-rule:evenodd;fill:#FFFFFF;}
</style>
<g id="DEFINERY">
	<path id="MARK" class="st0" d="M213.3,21l-25.7,14.9v-9.5l17.5-10.1L213.3,21z M177,42l8.2-4.8V17.1l-8.2-4.8V42z M177,0l25.7,14.9
		l-8.2,4.8L177,9.5V0z"/>
	<path id="TYPE" class="st1" d="M135.5,13c2.8,0,4.1,1.5,4.1,3.9c0,2.7-1.5,4.1-4.1,4.1H130v-8H135.5z M154.9,23.4V32h3.7v-8.5
		l7.9-13.5h-3.9l-5.8,10.3L151.1,10h-4L154.9,23.4z M126.5,32h3.6v-7.9h5.5l4.1,7.9h4l-4.4-8.6c2.6-1,4.1-3.2,4.1-6.6
		c0-4.3-2.5-6.8-7.4-6.8h-9.5V32z M104.5,32h16.6v-3h-13v-6.5h11.1v-3h-11.1V13h12.7v-3h-16.3V32z M93.9,32h3.5V10h-3.5L94,26.7
		L82.3,10H79v22h3.5l-0.1-16.4L93.9,32z M68,32h3.7V10H68V32z M46,32h3.7v-9.3h10.7v-3.1H49.7V13h12.1v-3H46V32z M24,32h16.6v-3h-13
		v-6.5h11.1v-3H27.6V13h12.7v-3H24V32z M8.6,32c6.6,0,9.8-3.6,9.8-11.1c0-7.6-3.1-10.9-9.7-10.9H0v22H8.6z M3.7,15.9v13h4.7
		c3.9,0,6.4-1.9,6.4-8c0-5.8-2.2-7.9-6.1-7.9H3.8H0v2L3.7,15.9z"/>
</g>
</svg>
