<?xml version="1.0" encoding="UTF-8" standalone="no"?>
<svg viewBox="0 0 199 40" version="1.1" xmlns="http://www.w3.org/2000/svg" xmlns:xlink="http://www.w3.org/1999/xlink">
    <g stroke="none" stroke-width="1" fill="none" fill-rule="evenodd">
        <g transform="translate(-140.000000, -248.000000)">
            <g id="Text" transform="translate(140.000000, 248.000000)">
                <g id="Group-2">
                    <path d="M3.84124761,11.6030676 L8.36168918,11.6030676 C13.0335226,11.6030676 16.7233784,15.084625 16.7233784,19.7564585 C16.7233784,24.398535 13.0930364,27.8800925 8.45095988,27.8800925 L2.38055208,27.8800925 L2.38055208,13.6304075 L4.68958206e-13,12.6781866 L4.7649274e-13,11.6030676 L3.84124761,11.6030676 Z M0,9.30927835 L0,30.139109 L8.33193228,30.139109 C14.4618539,30.139109 19.1336873,25.645817 19.1336873,19.7241937 C19.1336873,13.8025704 14.4916108,9.30927835 8.42120298,9.30927835 L0,9.30927835 Z M38.542626,11.6005597 L38.542626,9.30927835 L24.408098,9.30927835 L24.408098,30.139109 L38.9294657,30.139109 L38.9294657,27.8775846 L26.7886501,27.8775846 L26.7886501,20.7359283 L37.2928362,20.7359283 L37.2928362,18.444647 L26.7886501,18.444647 L26.7886501,11.6005597 L38.542626,11.6005597 Z M57.9515647,11.6005597 L57.9515647,9.30927835 L44.7097437,9.30927835 L44.7097437,30.139109 L47.0902958,30.139109 L47.0902958,21.2120387 L56.8208025,21.2120387 L56.8208025,18.9207574 L47.0902958,18.9207574 L47.0902958,11.6005597 L57.9515647,11.6005597 Z M64.7733342,30.139109 L64.7733342,9.30927835 L62.3927822,9.30927835 L62.3927822,30.139109 L64.7733342,30.139109 Z M89.3302168,30.139109 L89.3302168,9.30927835 L86.9794216,9.30927835 L86.9794216,26.0624136 L74.4815232,9.30927835 L72.0117004,9.30927835 L72.0117004,30.139109 L74.3922525,30.139109 L74.3922525,13.4157307 L86.8901509,30.139109 L89.3302168,30.139109 Z M110.732868,11.6005597 L110.732868,9.30927835 L96.5983399,9.30927835 L96.5983399,30.139109 L111.119708,30.139109 L111.119708,27.8775846 L98.9788919,27.8775846 L98.9788919,20.7359283 L109.483078,20.7359283 L109.483078,18.444647 L98.9788919,18.444647 L98.9788919,11.6005597 L110.732868,11.6005597 Z M130.528646,30.139109 L133.236524,30.139109 L128.356392,23.0569666 C131.361839,22.0749889 133.028226,19.7539506 133.028226,16.3021501 C133.028226,11.8683718 130.022779,9.30927835 124.815321,9.30927835 L116.899986,9.30927835 L116.899986,30.139109 L119.280538,30.139109 L119.280538,23.5628339 L124.815321,23.5628339 C125.291432,23.5628339 125.767542,23.533077 126.213896,23.5033201 L130.528646,30.139109 Z M119.280538,21.2715526 L119.280538,11.6005597 L124.815321,11.6005597 C128.594448,11.6005597 130.736945,13.2074324 130.736945,16.3616639 C130.736945,19.6051661 128.594448,21.2715526 124.815321,21.2715526 L119.280538,21.2715526 Z M146.72384,22.9974528 L154.639175,9.30927835 L152.199109,9.30927835 L145.533564,20.1705472 L138.778747,9.30927835 L136.308924,9.30927835 L144.373044,23.0867235 L144.373044,30.139109 L146.72384,30.139109 L146.72384,22.9974528 Z" id="DEFINERY" fill="#FFFFFF"></path>
                    <path d="M163.917526,0 L188.429282,14.1511169 L180.571814,18.6876278 L163.917526,9.07234727 L163.917526,0 Z M163.917526,40 L171.774669,35.4639175 L171.774669,16.2479863 L163.917526,11.7116628 L163.917526,40 Z M198.560383,20 L174.060383,34.1443299 L174.060383,25.0908681 L190.715057,15.4707396 L198.560383,20 Z" id="Flat-Copy-4" fill="#55C7C0"></path>
                </g>
            </g>
        </g>
    </g>
</svg>
