<?xml version="1.0" encoding="UTF-8" standalone="no"?>
<svg width="23px" height="32px" viewBox="0 0 23 32" version="1.1" xmlns="http://www.w3.org/2000/svg" xmlns:xlink="http://www.w3.org/1999/xlink">
    <!-- Generator: Sketch 3.8.3 (29802) - http://www.bohemiancoding.com/sketch -->
    <title>Shape</title>
    <desc>Created with Sketch.</desc>
    <defs></defs>
    <g id="Temporary-Site" stroke="none" stroke-width="1" fill="none" fill-rule="evenodd">
        <g id="contact" transform="translate(-349.000000, -394.000000)" fill="#55C7C0">
            <g id="Content" transform="translate(320.000000, 144.000000)">
                <g id="Lists" transform="translate(0.000000, 190.000000)">
                    <g id="Group-8">
                        <g id="Group-5-Copy" transform="translate(0.000000, 38.000000)">
                            <path d="M40.2,22 C34.008,22 29,27.008 29,33.2 C29,41.6 40.2,54 40.2,54 C40.2,54 51.4,41.6 51.4,33.2 C51.4,27.008 46.392,22 40.2,22 L40.2,22 Z M40.2,37.2 C37.992,37.2 36.2,35.408 36.2,33.2 C36.2,30.992 37.992,29.2 40.2,29.2 C42.408,29.2 44.2,30.992 44.2,33.2 C44.2,35.408 42.408,37.2 40.2,37.2 L40.2,37.2 Z" id="Shape"></path>
                        </g>
                    </g>
                </g>
            </g>
        </g>
    </g>
</svg>